<?xml version="1.0" encoding="UTF-8"?>
<svg id="Capa_1" data-name="Capa 1" xmlns="http://www.w3.org/2000/svg" viewBox="0 0 776.28 273.76">
  <defs>
    <style>
      .cls-1 {
        fill: #fff;
      }

      .cls-2 {
        fill: #172a47;
      }
    </style>
  </defs>
  <polygon class="cls-2" points="214.59 88.48 159.69 123.12 103.89 88.48 103.62 210.9 71.83 190.28 70.21 188.17 70.47 48.39 102.99 27.1 159.34 63.29 215.48 27.11 248.29 48.23 248.01 189.51 159.69 246.66 136.51 231.48 136.51 144.61 159.27 159.06 181.96 145.15 181.96 191.66 214.59 171.07 214.59 88.48"/>
  <g>
    <g>
      <path class="cls-1" d="M326.26,63.41c-.41.67-.83,1.16-1.25,1.47-.42.31-.97.46-1.65.46s-1.34-.23-2.08-.68-1.62-.94-2.61-1.47c-1-.53-2.14-1.02-3.42-1.47-1.29-.45-2.79-.68-4.52-.68-3.04,0-5.33.68-6.85,2.04-1.52,1.36-2.28,3.14-2.28,5.33,0,1.4.42,2.57,1.25,3.49s1.93,1.72,3.29,2.39c1.36.67,2.9,1.27,4.63,1.8,1.73.53,3.5,1.1,5.31,1.73,1.81.63,3.58,1.37,5.31,2.22,1.73.85,3.27,1.92,4.63,3.2,1.36,1.29,2.46,2.86,3.29,4.72.83,1.86,1.25,4.12,1.25,6.78,0,2.9-.5,5.61-1.51,8.14-1.01,2.53-2.47,4.74-4.37,6.63-1.9,1.89-4.25,3.37-7.04,4.45-2.79,1.08-5.96,1.62-9.5,1.62-2.02,0-4.03-.21-6.04-.61-2-.41-3.94-.98-5.79-1.71-1.86-.73-3.61-1.61-5.25-2.63-1.64-1.02-3.07-2.17-4.3-3.42l3.86-6.23c.32-.47.75-.86,1.27-1.16.53-.31,1.08-.46,1.67-.46.79,0,1.62.29,2.5.88.88.59,1.89,1.23,3.03,1.93,1.14.7,2.46,1.35,3.97,1.93,1.51.59,3.31.88,5.42.88,3.07,0,5.45-.7,7.13-2.11,1.68-1.4,2.52-3.5,2.52-6.28,0-1.61-.42-2.91-1.25-3.91-.83-.99-1.92-1.83-3.27-2.5-1.35-.67-2.88-1.25-4.61-1.73-1.73-.48-3.5-1.02-5.31-1.6-1.81-.58-3.58-1.29-5.31-2.11-1.73-.82-3.26-1.9-4.61-3.25-1.35-1.35-2.44-3.01-3.27-5-.83-1.99-1.25-4.46-1.25-7.42,0-2.37.47-4.67,1.4-6.89.94-2.22,2.31-4.2,4.13-5.93,1.81-1.73,4.04-3.12,6.69-4.17,2.65-1.05,5.68-1.58,9.11-1.58,3.83,0,7.38.59,10.64,1.78,3.26,1.19,6.02,2.83,8.27,4.94l-3.25,6.19Z"/>
      <path class="cls-1" d="M353.38,61.52v16.37h21.24v9.96h-21.24v16.72h27.3v10.31h-40.55v-63.69h40.55v10.31h-27.3Z"/>
      <path class="cls-1" d="M420.18,82.46h21.86v26.29c-3.25,2.37-6.71,4.1-10.38,5.2-3.67,1.1-7.56,1.65-11.65,1.65-5.24,0-9.98-.81-14.22-2.44-4.24-1.62-7.87-3.88-10.88-6.78-3.01-2.9-5.34-6.33-6.98-10.31-1.64-3.98-2.46-8.32-2.46-13.04s.78-9.14,2.35-13.12c1.56-3.98,3.8-7.4,6.69-10.27,2.9-2.87,6.4-5.11,10.51-6.72,4.11-1.61,8.71-2.41,13.8-2.41,2.63,0,5.09.21,7.37.64,2.28.42,4.39,1.01,6.32,1.76,1.93.75,3.7,1.63,5.31,2.66,1.61,1.02,3.07,2.15,4.39,3.38l-3.82,5.88c-.59.94-1.35,1.51-2.28,1.71-.94.21-1.96-.03-3.07-.7-1.05-.64-2.08-1.22-3.09-1.73-1.01-.51-2.08-.96-3.23-1.34-1.14-.38-2.39-.67-3.73-.88-1.35-.2-2.9-.31-4.65-.31-2.96,0-5.63.51-8.03,1.54-2.4,1.02-4.44,2.47-6.12,4.35-1.68,1.87-2.98,4.13-3.88,6.76-.91,2.63-1.36,5.57-1.36,8.82,0,3.51.5,6.65,1.49,9.41s2.4,5.1,4.21,7c1.81,1.9,3.99,3.35,6.52,4.35,2.53,1,5.35,1.49,8.45,1.49,2.11,0,3.99-.21,5.64-.64,1.65-.42,3.27-1,4.85-1.73v-10.71h-7.2c-.85,0-1.51-.23-2-.68-.48-.45-.72-1.03-.72-1.73v-7.33Z"/>
      <path class="cls-1" d="M478.86,104.36c2.14,0,4.05-.36,5.75-1.08,1.7-.72,3.13-1.73,4.3-3.05,1.17-1.32,2.06-2.91,2.68-4.78.62-1.87.92-3.98.92-6.32v-37.92h13.17v37.92c0,3.86-.62,7.41-1.87,10.64-1.24,3.23-3.02,6.02-5.33,8.36-2.31,2.34-5.12,4.17-8.43,5.49-3.31,1.32-7.04,1.98-11.19,1.98s-7.89-.66-11.21-1.98c-3.32-1.32-6.14-3.15-8.45-5.49-2.31-2.34-4.09-5.13-5.33-8.36-1.24-3.23-1.87-6.78-1.87-10.64v-37.92h13.17v37.92c0,2.34.31,4.45.92,6.32.61,1.87,1.51,3.47,2.68,4.78,1.17,1.32,2.6,2.33,4.3,3.05,1.7.72,3.63,1.08,5.79,1.08Z"/>
      <path class="cls-1" d="M569.01,114.89h-11.89c-2.22,0-3.83-.85-4.83-2.55l-12.11-19.53c-.5-.76-1.05-1.32-1.65-1.67s-1.49-.53-2.66-.53h-4.48v24.27h-13.17v-63.69h20.01c4.45,0,8.25.46,11.41,1.38s5.75,2.2,7.77,3.84c2.02,1.64,3.5,3.59,4.43,5.86s1.4,4.76,1.4,7.48c0,2.11-.3,4.1-.9,5.99-.6,1.89-1.47,3.61-2.61,5.16-1.14,1.55-2.55,2.93-4.21,4.13-1.67,1.2-3.57,2.17-5.71,2.9.85.47,1.64,1.03,2.37,1.69s1.39,1.44,1.98,2.35l14.83,22.91ZM538.16,81.36c2.14,0,3.98-.27,5.53-.81,1.55-.54,2.82-1.29,3.82-2.24,1-.95,1.73-2.07,2.2-3.36.47-1.29.7-2.69.7-4.21,0-3.01-1-5.35-3.01-7.02-2-1.67-5.05-2.5-9.15-2.5h-6.85v20.15h6.76Z"/>
      <path class="cls-1" d="M635.77,83.03c0,4.65-.78,8.97-2.35,12.95-1.57,3.98-3.77,7.42-6.63,10.31-2.85,2.9-6.28,5.17-10.29,6.83-4.01,1.65-8.46,2.48-13.34,2.48s-9.33-.83-13.34-2.48c-4.01-1.65-7.45-3.93-10.31-6.83-2.87-2.9-5.08-6.33-6.65-10.31-1.57-3.98-2.35-8.3-2.35-12.95s.78-8.96,2.35-12.93c1.56-3.96,3.78-7.4,6.65-10.29,2.87-2.9,6.3-5.17,10.31-6.83,4.01-1.65,8.46-2.48,13.34-2.48s9.33.83,13.34,2.48c4.01,1.65,7.44,3.94,10.29,6.85,2.85,2.91,5.06,6.35,6.63,10.31,1.56,3.96,2.35,8.26,2.35,12.88ZM622.3,83.03c0-3.34-.44-6.33-1.32-8.98-.88-2.65-2.14-4.9-3.8-6.76-1.65-1.86-3.66-3.28-6.01-4.26-2.36-.98-5.03-1.47-8.01-1.47s-5.66.49-8.03,1.47c-2.37.98-4.38,2.4-6.04,4.26-1.65,1.86-2.92,4.11-3.8,6.76-.88,2.65-1.32,5.64-1.32,8.98s.44,6.37,1.32,9.02c.88,2.65,2.14,4.89,3.8,6.74s3.67,3.26,6.04,4.24c2.37.98,5.05,1.47,8.03,1.47s5.65-.49,8.01-1.47c2.36-.98,4.36-2.39,6.01-4.24,1.65-1.84,2.92-4.09,3.8-6.74.88-2.65,1.32-5.65,1.32-9.02Z"/>
      <path class="cls-1" d="M679.93,63.41c-.41.67-.83,1.16-1.25,1.47-.42.31-.97.46-1.65.46s-1.34-.23-2.08-.68-1.62-.94-2.61-1.47c-1-.53-2.14-1.02-3.42-1.47-1.29-.45-2.79-.68-4.52-.68-3.04,0-5.33.68-6.85,2.04-1.52,1.36-2.28,3.14-2.28,5.33,0,1.4.42,2.57,1.25,3.49s1.93,1.72,3.29,2.39c1.36.67,2.9,1.27,4.63,1.8,1.73.53,3.5,1.1,5.31,1.73,1.81.63,3.58,1.37,5.31,2.22,1.73.85,3.27,1.92,4.63,3.2,1.36,1.29,2.46,2.86,3.29,4.72.83,1.86,1.25,4.12,1.25,6.78,0,2.9-.5,5.61-1.51,8.14-1.01,2.53-2.47,4.74-4.37,6.63-1.9,1.89-4.25,3.37-7.04,4.45-2.79,1.08-5.96,1.62-9.5,1.62-2.02,0-4.03-.21-6.04-.61-2-.41-3.94-.98-5.79-1.71-1.86-.73-3.61-1.61-5.25-2.63-1.64-1.02-3.07-2.17-4.3-3.42l3.86-6.23c.32-.47.75-.86,1.27-1.16.53-.31,1.08-.46,1.67-.46.79,0,1.62.29,2.5.88.88.59,1.89,1.23,3.03,1.93,1.14.7,2.46,1.35,3.97,1.93,1.51.59,3.31.88,5.42.88,3.07,0,5.45-.7,7.13-2.11,1.68-1.4,2.52-3.5,2.52-6.28,0-1.61-.42-2.91-1.25-3.91-.83-.99-1.92-1.83-3.27-2.5-1.35-.67-2.88-1.25-4.61-1.73-1.73-.48-3.5-1.02-5.31-1.6-1.81-.58-3.58-1.29-5.31-2.11-1.73-.82-3.26-1.9-4.61-3.25-1.35-1.35-2.44-3.01-3.27-5-.83-1.99-1.25-4.46-1.25-7.42,0-2.37.47-4.67,1.4-6.89.94-2.22,2.31-4.2,4.13-5.93,1.81-1.73,4.04-3.12,6.69-4.17,2.65-1.05,5.68-1.58,9.11-1.58,3.83,0,7.38.59,10.64,1.78,3.26,1.19,6.02,2.83,8.27,4.94l-3.25,6.19Z"/>
    </g>
    <g>
      <path class="cls-1" d="M356.39,138.53v62.11h-3.91v-52.93c0-.76.04-1.56.13-2.41l-24.45,43.41c-.41.76-1,1.14-1.75,1.14h-.7c-.76,0-1.35-.38-1.75-1.14l-25.11-43.5c.09.88.13,1.71.13,2.5v52.93h-3.95v-62.11h3.12c.41,0,.73.04.97.13.23.09.47.32.7.7l25.06,43.19c.44.82.82,1.7,1.14,2.63.18-.47.37-.93.57-1.38.21-.45.42-.88.66-1.29l24.36-43.14c.23-.38.47-.61.72-.7.25-.09.58-.13.99-.13h3.07Z"/>
      <path class="cls-1" d="M379.26,200.64h-4.52v-62.11h4.52v62.11Z"/>
      <path class="cls-1" d="M431.53,196.82v3.82h-33.93v-62.11h4.52v58.29h29.41Z"/>
      <path class="cls-1" d="M489.25,200.64h-3.47c-.41,0-.75-.11-1.01-.33-.26-.22-.47-.5-.61-.86l-7.29-18.04h-30.5l-7.29,18.04c-.12.32-.32.6-.61.83-.29.23-.64.35-1.05.35h-3.42l25.41-62.11h4.43l25.41,62.11ZM475.51,178.08l-12.64-31.38c-.44-1.02-.86-2.25-1.27-3.69-.18.7-.37,1.37-.57,2-.21.63-.42,1.21-.66,1.73l-12.64,31.34h27.78Z"/>
      <path class="cls-1" d="M547.49,138.53v62.11h-2.11c-.38,0-.7-.07-.94-.2-.25-.13-.49-.36-.72-.68l-40.33-53.9c.09.88.13,1.71.13,2.5v52.27h-3.95v-62.11h2.24c.41,0,.72.05.94.15.22.1.46.33.72.68l40.25,53.77c-.09-.88-.13-1.71-.13-2.5v-52.1h3.91Z"/>
      <path class="cls-1" d="M603.15,196.91l-.09,3.73h-37.22v-62.11h37.22v3.73h-32.7v25.11h27.21v3.64h-27.21v25.9h32.79Z"/>
      <path class="cls-1" d="M646.9,146.08c-.26.5-.64.75-1.14.75-.38,0-.87-.27-1.47-.81-.6-.54-1.41-1.14-2.44-1.8-1.02-.66-2.3-1.27-3.84-1.82-1.54-.56-3.43-.83-5.68-.83s-4.24.32-5.95.97c-1.71.64-3.15,1.52-4.3,2.63-1.16,1.11-2.03,2.4-2.63,3.86-.6,1.46-.9,3-.9,4.61,0,2.11.45,3.85,1.34,5.22.89,1.38,2.07,2.55,3.53,3.51,1.46.97,3.12,1.78,4.98,2.44,1.86.66,3.77,1.31,5.73,1.95,1.96.64,3.87,1.35,5.73,2.13,1.86.78,3.52,1.75,4.98,2.92,1.46,1.17,2.64,2.61,3.53,4.32.89,1.71,1.34,3.84,1.34,6.39s-.45,5.06-1.34,7.35c-.89,2.3-2.19,4.29-3.88,5.99-1.7,1.7-3.77,3.04-6.23,4.02s-5.27,1.47-8.43,1.47c-4.1,0-7.62-.72-10.58-2.17-2.96-1.45-5.54-3.43-7.77-5.95l1.23-1.93c.35-.44.76-.66,1.23-.66.26,0,.6.18,1.01.53.41.35.91.78,1.49,1.29.58.51,1.29,1.07,2.11,1.67s1.77,1.16,2.85,1.67c1.08.51,2.33.94,3.73,1.29s3,.53,4.78.53c2.46,0,4.65-.37,6.58-1.12,1.93-.75,3.56-1.76,4.89-3.05,1.33-1.29,2.35-2.82,3.05-4.59.7-1.77,1.05-3.67,1.05-5.68,0-2.19-.45-4-1.34-5.42-.89-1.42-2.07-2.6-3.53-3.56-1.46-.95-3.12-1.75-4.98-2.39-1.86-.64-3.77-1.27-5.73-1.89-1.96-.61-3.87-1.3-5.73-2.06-1.86-.76-3.52-1.73-4.98-2.92s-2.64-2.66-3.53-4.43c-.89-1.77-1.34-3.99-1.34-6.65,0-2.08.4-4.08,1.19-6.01s1.95-3.64,3.47-5.11c1.52-1.48,3.4-2.66,5.64-3.56,2.24-.89,4.79-1.34,7.66-1.34,3.22,0,6.11.51,8.67,1.54,2.56,1.02,4.89,2.59,7,4.7l-1.05,2.02Z"/>
      <path class="cls-1" d="M668.23,200.64h-4.52v-62.11h4.52v62.11Z"/>
    </g>
  </g>
</svg>